# xmcd
#
# Track frame offsets:
#	150
#	11435
#	23997
#	36960
#	49580
#	60227
#	74385
#	84380
#	99910
#	112220
#	124840
#	138120
#	153237
#	166120
#	178497
#	190112
#	202407
#	216742
#	230367
#	250822
#	264612
#	283652
#	296580
#	311870
#	327012
#
# Disc length: 4461 seconds
#
# Revision: 2
# Processed by: cddbd v1.4PL0 Copyright (c) Steve Scherf et al.
# Submitted via: EasyCDDAExtractor 4.6.9.1
#
DISCID=73116b19
DTITLE=Merle Haggard - Merle Haggard: Legendary Country Singers
DYEAR=1995
DGENRE=Country
TTITLE0=(My Friends Are Gonna Be) Strangers
TTITLE1=The Bottle Let Me Down
TTITLE2=Swinging Doors
TTITLE3=Sing Me Back Home
TTITLE4=Today, I Started Loving You Again
TTITLE5=Branded Man
TTITLE6=Mama Tried
TTITLE7=Hungry Eyes
TTITLE8=Silver Wings
TTITLE9=California Blues
TTITLE10=The Fightin' Side Of Me
TTITLE11=It's Not Love (But It's Not Bad)
TTITLE12=I Wonder If They Ever Think Of Me
TTITLE13=Okie From Muskogee
TTITLE14=Workin' Man Blues
TTITLE15=If We Make It Through December
TTITLE16=Ramblin' Fever
TTITLE17=Big City
TTITLE18=I Think I'll Just Stay Here And Drink
TTITLE19=That's The Way Love Goes
TTITLE20=Are The Good Times Really Over (I Wish A Buck Was Still Silver)
TTITLE21=Let's Chase Each Other Around The Room
TTITLE22=Twinkle, Twinkle Lucky Star
TTITLE23=Chill Factor
TTITLE24=Skid Row
EXTD=
EXTT0=Merle Haggard
EXTT1=Merle Haggard
EXTT2=Merle Haggard
EXTT3=Merle Haggard
EXTT4=Merle Haggard
EXTT5=Merle Haggard
EXTT6=Merle Haggard
EXTT7=Merle Haggard
EXTT8=Merle Haggard
EXTT9=Merle Haggard
EXTT10=Merle Haggard
EXTT11=Merle Haggard
EXTT12=Merle Haggard
EXTT13=Merle Haggard
EXTT14=Merle Haggard
EXTT15=Merle Haggard
EXTT16=Merle Haggard
EXTT17=Merle Haggard and Leona Williams
EXTT18=Merle Haggard
EXTT19=Merle Haggard
EXTT20=Merle Haggard
EXTT21=Merle Haggard
EXTT22=Merle Haggard
EXTT23=Merle Haggard
EXTT24=Merle Haggard
PLAYORDER=
